<svg xmlns="http://www.w3.org/2000/svg" viewBox="0 0 999.97 964.51"><path class="cls-1" d="M35,332.82C-37,514.56,4.11,723.21,140,865.38L461.49,17.75C270.83,33.55,105.1,156,35,332.82Z" transform="translate(-0.01 -17.75)"/><path class="cls-1" d="M965,332.82C894.91,156,729.17,33.55,538.51,17.75L860,865.38C995.89,723.21,1037,514.56,965,332.82Z" transform="translate(-0.01 -17.75)"/><path class="cls-1" d="M387.6,641.24C46.08,801.81,390.7,1122,748.55,914.45,530.27,981.71,283.83,865.38,387.6,641.24Z" transform="translate(-0.01 -17.75)"/><path class="cls-1" d="M732.53,822.23,497.83,195.11,376.67,533.92c17.72,5.09,68.81,22.33,101,72.28,39.06,60.67,46.25,133.44-.54,201.28C525.78,877.81,692.52,865.38,732.53,822.23Z" transform="translate(-0.01 -17.75)"/></svg>