<?xml version="1.0" encoding="UTF-8" standalone="no"?>
<svg
        viewBox="0 0 2615.3679 1080"
        version="1.1"
        id="svg1"
        xml:space="preserve"
        width="1920"
        height="1080"
        xmlns="http://www.w3.org/2000/svg"><defs
   id="defs1"><filter
     style="color-interpolation-filters:sRGB"
     id="filter15-7"
     x="-0.40947752"
     y="-0.42538383"
     width="1.818955"
     height="1.8507677"><feGaussianBlur
       stdDeviation="100 100"
       result="blur"
       id="feGaussianBlur15-5" /></filter><filter
        style="color-interpolation-filters:sRGB"
        id="filter16-3"
        x="-0.4078846"
        y="-0.42514091"
        width="1.8157692"
        height="1.8502818"><feGaussianBlur
       stdDeviation="100 100"
       result="blur"
       id="feGaussianBlur16-5" /></filter><filter
        style="color-interpolation-filters:sRGB"
        id="filter17-6"
        x="-0.4039307"
        y="-0.38323721"
        width="1.8078614"
        height="1.7664744"><feGaussianBlur
       stdDeviation="100 100"
       result="blur"
       id="feGaussianBlur17-2" /></filter></defs>


    <path
            class="blob-1"
            d="m 1277.2038,218.12992 c 54,13.2 96.0001,64.4 125.2001,120.8 29.2,56.4 45.6,118.4 26.4,169.6 -18.8,50.8 -73.2,90.8 -105.2001,142.4 -32.4,51.6 -42,114.4 -76.8,151.2 -34.8,36.8 -94,47.60005 -143.2,29.6 -48.8,-18 -87.6,-64.8 -130.39997,-97.2 -42.8,-32 -90,-49.6 -112.4,-82.8 -22.8,-33.6 -21.2,-82.8 -9.6,-126 11.2,-42.8 32.4,-78.8 42,-135.2 9.6,-56 7.6,-132 38.8,-158.4 31.6,-26 96.39997,-2.4 161.59997,-2.8 64.8,-0.4 130,-24.8 183.6,-11.2 z"
            id="blob-1"
            style="stroke-width:4;filter:url(#filter17-6)"/>
    <path
            class="blob-2"
            d="m 1554.2667,502.85432 c 60.8,38.8 126,84.8 148.4,148.4 22,63.2 1.2,143.2 -39.6,208.80005 -41.2,66 -102.4,117.6 -169.6,133.6 -67.2,16.40003 -140.4,-2.8 -209.2001,-30 -68.4,-26.8 -132.4,-61.6 -153.2,-113.6 -20.4,-52.00005 2.8,-121.20005 24,-182.00005 21.2,-60.4 40.4,-112.8 77.6,-155.6 37.2,-42.4 91.6,-76 147.6001,-77.2 55.6,-1.6 112.8,29.2 174,67.6 z"
            id="blob-2"
            style="stroke-width:4;filter:url(#filter16-3)"/>
    <path
            class="blob-3"
            d="m 1596.8415,86.78112 c 47.2,17.6 77.2,76 109.2,136 31.6,60 66,122 66.4,184.8 0,62.8 -33.6,126.8 -84.4,166 -50.4,38.8 -117.2,52.4 -180,62 -62.8,10 -120.8,16 -164.4001,-6.8 -43.2,-22.8 -71.6,-74.8 -95.6,-120 -24.4,-45.6 -44.8,-84.8 -55.2,-128 -10,-43.2 -10,-90.8 10.8,-124.4 21.2,-34 63.6,-54.8 103.2,-76.4 39.2,-21.2 75.6001,-43.6 126.4001,-66 50.8,-22.4 116,-45.2 163.6,-27.2 z"
            id="blob3"
            style="fill:#000000;stroke-width:4;filter:url(#filter15-7)"/></svg>
