<?xml version="1.0" encoding="UTF-8" standalone="no"?>
<!-- Created with Inkscape (http://www.inkscape.org/) -->

<svg
        viewBox="0 0 1920 1080"
        version="1.1"
        id="svg1"
        xmlns="http://www.w3.org/2000/svg">
    <defs
            id="defs1">
        <filter
                style="color-interpolation-filters:sRGB;"
                id="filter2"
                x="-1.042628708"
                y="-1.10238524"
                width="300%"
                height="300%">
            <feGaussianBlur
                    stdDeviation="30 30"
                    result="blur"
                    id="feGaussianBlur2"/>
        </filter>
    </defs>
    <g
            id="layer1"
            transform="translate(-2.6209454e-4,7.6229449e-4)"
            style="filter:url(#filter2)">
        <path
                style="stroke-width:0.264583"
                d="m 503.59196,231.30096 c -17.76446,1.69178 -34.7608,9.47046 -48.25443,21.1478 -13.49363,11.67733 -23.52749,27.13602 -29.56253,43.92937 -12.07006,33.5867 -8.0161,71.36103 4.62045,104.73872 25.16835,66.47871 83.10512,117.61295 149.32089,143.46515 49.88657,19.4769 104.96324,25.72509 157.83943,17.23234 52.8762,-8.49275 103.38854,-31.78421 143.73016,-67.00597 25.24632,-22.04225 46.97112,-49.56203 55.79351,-81.89472 4.4112,-16.16635 5.47128,-33.34472 2.1669,-49.77306 -3.30437,-16.42834 -11.06823,-32.06388 -22.82607,-44.00383 -15.06689,-15.30025 -35.98209,-23.90785 -57.21928,-27.08442 -21.23719,-3.17657 -42.91934,-1.2827 -64.13754,2.01834 -21.2182,3.30104 -42.22305,8.00203 -63.55378,10.47367 -21.33072,2.47164 -43.23603,2.65801 -63.95754,-2.97473 -29.1392,-7.92092 -53.87756,-26.65357 -79.41008,-42.77575 -12.76626,-8.06108 -25.97155,-15.58243 -40.1356,-20.81104 -14.16404,-5.2286 -29.3842,-8.11326 -44.41449,-6.68187 z"
                id="blob1"/>
        <path
                style="stroke-width:0.264583"
                d="m 1024.7511,488.95267 c -9.386,21.85795 -14.6634,46.20118 -10.1899,69.56472 2.2368,11.68177 6.929,22.9592 14.157,32.40502 7.2279,9.44581 17.0367,17.00468 28.2394,21.00039 9.4548,3.37229 19.7473,4.17094 29.6957,2.83091 9.9484,-1.34003 19.5584,-4.78009 28.3724,-9.58424 17.628,-9.6083 31.8534,-24.42491 44.407,-40.09245 13.3023,-16.60191 25.236,-34.77252 31.2451,-55.17998 3.0046,-10.20372 4.4829,-20.9019 3.8224,-31.51828 -0.6604,-10.61637 -3.494,-21.14973 -8.7168,-30.41614 -5.6151,-9.96244 -13.9435,-18.33433 -23.7217,-24.26437 -9.7782,-5.93004 -20.9759,-9.4338 -32.3673,-10.44181 -22.7827,-2.01601 -45.8707,6.06204 -63.9533,20.06687 -18.4073,14.25627 -31.8035,34.23598 -40.99,55.62936 z"
                id="blob2"/>
        <path
                style="stroke-width:0.264583"
                d="m 717.32576,688.04715 c -5.78228,12.92729 -7.26425,27.62212 -4.91173,41.58691 2.35252,13.96478 8.45055,27.19083 16.94802,38.51967 16.99495,22.65767 42.94028,37.24691 69.94379,45.79143 17.28096,5.46808 35.34761,8.72365 53.47202,8.53046 18.12441,-0.19319 36.31832,-3.89912 52.63008,-11.80214 16.31177,-7.90302 30.67963,-20.09564 40.24177,-35.4936 9.56214,-15.39795 14.13881,-34.02965 11.7606,-51.99839 -1.80481,-13.63635 -7.52959,-26.639 -15.79383,-37.6349 -8.26425,-10.99589 -19.01458,-20.01836 -30.92178,-26.905 -23.81442,-13.77329 -51.71113,-18.89816 -79.18237,-20.36804 -22.07534,-1.18117 -44.66102,-0.0719 -65.44674,7.45597 -10.39286,3.76395 -20.25259,9.12972 -28.71663,16.23879 -8.46404,7.10907 -15.50998,15.98876 -20.0232,26.07884 z"
                id="blob3"/>
        <path
                style="stroke-width:0.264583"
                d="m 1215.062,714.3979 c 27.7835,-2.2045 54.2168,-13.47995 81.9786,-15.94204 13.881,-1.23104 28.2052,-0.16336 41.073,5.18605 12.8677,5.34941 24.1623,15.32904 29.1971,28.32316 3.6196,9.34177 3.8659,19.82098 1.4986,29.55577 -2.3673,9.7348 -7.2572,18.749 -13.4718,26.60703 -12.4293,15.71606 -29.7504,26.66084 -46.584,37.52873 -31.5775,20.38665 -63.1376,41.81376 -98.8302,53.59466 -17.8463,5.89045 -36.6413,9.27682 -55.4217,8.58063 -18.7804,-0.69619 -37.5586,-5.58147 -53.6261,-15.32952 -13.8161,-8.38215 -25.4862,-20.32417 -33.3434,-34.44543 -7.8572,-14.12126 -11.8576,-30.39841 -11.2074,-46.5453 0.6502,-16.14688 5.9788,-32.11015 15.3488,-45.27633 9.37,-13.16617 22.7709,-23.46351 37.9855,-28.90955 16.6501,-5.95986 34.7951,-6.07231 52.4439,-4.94721 17.6488,1.1251 35.3299,3.41815 52.9591,2.01935 z"
                id="blob4"/>
        <path
                style="stroke-width:0.264583"
                d="m 1373.1665,210.80594 c -26.6971,13.73896 -47.2698,38.39802 -57.4033,66.6612 -10.1335,28.26317 -10.035,59.83403 -1.1539,88.5154 5.4483,17.59524 14.2086,34.31043 26.6396,47.90265 12.4309,13.59222 28.6386,23.9543 46.5569,28.2217 15.4175,3.67181 31.8176,2.76306 46.9244,-2.02951 15.1067,-4.79256 28.9142,-13.40361 40.2887,-24.44005 22.749,-22.07288 35.2699,-53.27618 38.6848,-84.78913 2.9023,-26.78311 -0.5556,-54.6802 -12.9213,-78.61444 -12.3657,-23.93425 -34.1849,-43.499 -60.2752,-50.2114 -22.4143,-5.76665 -46.7617,-1.80687 -67.3407,8.78358 z"
                id="blob5"/>
    </g>
</svg>
